<svg width="150" height="18" viewBox="0 0 150 18" fill="none" xmlns="http://www.w3.org/2000/svg">
<path d="M0.600313 17.64C0.424313 17.64 0.280313 17.584 0.168313 17.472C0.0563126 17.36 0.000312507 17.216 0.000312507 17.04V1.44C0.000312507 1.264 0.0563126 1.12 0.168313 1.008C0.280313 0.895998 0.424313 0.839998 0.600313 0.839998H7.92031C9.29631 0.839998 10.4243 1.032 11.3043 1.416C12.1843 1.8 12.8323 2.352 13.2483 3.072C13.6803 3.776 13.8963 4.616 13.8963 5.592C13.8963 6.168 13.7843 6.68 13.5603 7.128C13.3523 7.56 13.0883 7.92 12.7683 8.208C12.4643 8.496 12.1763 8.704 11.9043 8.832C12.5123 9.12 13.0483 9.592 13.5123 10.248C13.9923 10.904 14.2323 11.672 14.2323 12.552C14.2323 13.608 13.9923 14.52 13.5123 15.288C13.0483 16.04 12.3603 16.624 11.4483 17.04C10.5523 17.44 9.44831 17.64 8.13631 17.64H0.600313ZM4.29631 14.52H7.65631C8.34431 14.52 8.86431 14.32 9.21631 13.92C9.56831 13.52 9.74431 13.064 9.74431 12.552C9.74431 11.992 9.56031 11.52 9.19231 11.136C8.84031 10.752 8.32831 10.56 7.65631 10.56H4.29631V14.52ZM4.29631 7.512H7.44031C8.09631 7.512 8.58431 7.344 8.90431 7.008C9.24031 6.672 9.40831 6.24 9.40831 5.712C9.40831 5.2 9.24031 4.784 8.90431 4.464C8.58431 4.128 8.09631 3.96 7.44031 3.96H4.29631V7.512ZM17.1014 17.64C16.9254 17.64 16.7814 17.584 16.6694 17.472C16.5574 17.36 16.5014 17.216 16.5014 17.04V5.76C16.5014 5.6 16.5574 5.464 16.6694 5.352C16.7814 5.224 16.9254 5.16 17.1014 5.16H19.8614C20.0374 5.16 20.1814 5.224 20.2934 5.352C20.4054 5.464 20.4614 5.6 20.4614 5.76V6.72C20.8934 6.224 21.4054 5.84 21.9974 5.568C22.6054 5.296 23.2854 5.16 24.0374 5.16H25.0934C25.2534 5.16 25.3894 5.216 25.5014 5.328C25.6294 5.44 25.6934 5.584 25.6934 5.76V8.232C25.6934 8.392 25.6294 8.536 25.5014 8.664C25.3894 8.776 25.2534 8.832 25.0934 8.832H22.7654C22.1094 8.832 21.5974 9.016 21.2294 9.384C20.8774 9.736 20.7014 10.24 20.7014 10.896V17.04C20.7014 17.216 20.6374 17.36 20.5094 17.472C20.3974 17.584 20.2534 17.64 20.0774 17.64H17.1014ZM30.7996 17.88C29.9356 17.88 29.1596 17.72 28.4716 17.4C27.7996 17.064 27.2636 16.616 26.8636 16.056C26.4636 15.496 26.2636 14.864 26.2636 14.16C26.2636 13.024 26.7276 12.128 27.6556 11.472C28.5836 10.8 29.8156 10.344 31.3516 10.104L34.3516 9.648V9.312C34.3516 8.736 34.2316 8.296 33.9916 7.992C33.7516 7.688 33.3116 7.536 32.6716 7.536C32.2236 7.536 31.8556 7.624 31.5676 7.8C31.2956 7.976 31.0796 8.216 30.9196 8.52C30.7756 8.728 30.5756 8.832 30.3196 8.832H27.6316C27.4556 8.832 27.3196 8.784 27.2236 8.688C27.1276 8.576 27.0876 8.448 27.1036 8.304C27.1036 8.016 27.2076 7.688 27.4156 7.32C27.6396 6.936 27.9756 6.56 28.4236 6.192C28.8716 5.824 29.4476 5.52 30.1516 5.28C30.8556 5.04 31.7036 4.92 32.6956 4.92C33.7356 4.92 34.6236 5.04 35.3596 5.28C36.0956 5.52 36.6876 5.856 37.1356 6.288C37.5996 6.72 37.9436 7.232 38.1676 7.824C38.3916 8.4 38.5036 9.04 38.5036 9.744V17.04C38.5036 17.216 38.4396 17.36 38.3116 17.472C38.1996 17.584 38.0636 17.64 37.9036 17.64H35.1196C34.9436 17.64 34.7996 17.584 34.6876 17.472C34.5756 17.36 34.5196 17.216 34.5196 17.04V16.2C34.3116 16.504 34.0316 16.784 33.6796 17.04C33.3276 17.296 32.9116 17.496 32.4316 17.64C31.9676 17.8 31.4236 17.88 30.7996 17.88ZM31.9276 15.144C32.3916 15.144 32.8076 15.048 33.1756 14.856C33.5596 14.648 33.8556 14.336 34.0636 13.92C34.2876 13.488 34.3996 12.952 34.3996 12.312V11.976L32.3596 12.336C31.6076 12.464 31.0556 12.664 30.7036 12.936C30.3676 13.192 30.1996 13.496 30.1996 13.848C30.1996 14.12 30.2796 14.352 30.4396 14.544C30.5996 14.736 30.8076 14.888 31.0636 15C31.3196 15.096 31.6076 15.144 31.9276 15.144ZM41.6785 17.64C41.5025 17.64 41.3585 17.584 41.2465 17.472C41.1345 17.36 41.0785 17.216 41.0785 17.04V5.76C41.0785 5.584 41.1345 5.44 41.2465 5.328C41.3585 5.216 41.5025 5.16 41.6785 5.16H44.5105C44.6705 5.16 44.8065 5.216 44.9185 5.328C45.0465 5.44 45.1105 5.584 45.1105 5.76V17.04C45.1105 17.216 45.0465 17.36 44.9185 17.472C44.8065 17.584 44.6705 17.64 44.5105 17.64H41.6785ZM41.6545 3.36C41.4785 3.36 41.3345 3.304 41.2225 3.192C41.1105 3.08 41.0545 2.936 41.0545 2.76V0.623998C41.0545 0.447999 41.1105 0.303998 41.2225 0.191998C41.3345 0.0639987 41.4785 -9.53674e-07 41.6545 -9.53674e-07H44.5105C44.6865 -9.53674e-07 44.8305 0.0639987 44.9425 0.191998C45.0705 0.303998 45.1345 0.447999 45.1345 0.623998V2.76C45.1345 2.936 45.0705 3.08 44.9425 3.192C44.8305 3.304 44.6865 3.36 44.5105 3.36H41.6545ZM48.3889 17.64C48.2129 17.64 48.0689 17.584 47.9569 17.472C47.8449 17.36 47.7889 17.216 47.7889 17.04V5.76C47.7889 5.584 47.8449 5.44 47.9569 5.328C48.0689 5.216 48.2129 5.16 48.3889 5.16H51.1489C51.3249 5.16 51.4689 5.216 51.5809 5.328C51.6929 5.44 51.7489 5.584 51.7489 5.76V6.672C52.1649 6.176 52.7089 5.76 53.3809 5.424C54.0529 5.088 54.8449 4.92 55.7569 4.92C56.6849 4.92 57.5009 5.128 58.2049 5.544C58.9249 5.96 59.4849 6.576 59.8849 7.392C60.3009 8.192 60.5089 9.176 60.5089 10.344V17.04C60.5089 17.216 60.4449 17.36 60.3169 17.472C60.2049 17.584 60.0689 17.64 59.9089 17.64H56.8849C56.7249 17.64 56.5809 17.584 56.4529 17.472C56.3409 17.36 56.2849 17.216 56.2849 17.04V10.488C56.2849 9.736 56.1009 9.16 55.7329 8.76C55.3809 8.344 54.8529 8.136 54.1489 8.136C53.4929 8.136 52.9649 8.344 52.5649 8.76C52.1809 9.16 51.9889 9.736 51.9889 10.488V17.04C51.9889 17.216 51.9249 17.36 51.7969 17.472C51.6849 17.584 51.5489 17.64 51.3889 17.64H48.3889ZM66.3231 17.64C66.0831 17.64 65.9071 17.584 65.7951 17.472C65.6831 17.36 65.5951 17.216 65.5311 17.04L62.0751 5.928C62.0431 5.848 62.0271 5.768 62.0271 5.688C62.0271 5.544 62.0831 5.424 62.1951 5.328C62.3071 5.216 62.4351 5.16 62.5791 5.16H65.0511C65.2591 5.16 65.4191 5.216 65.5311 5.328C65.6591 5.44 65.7391 5.552 65.7711 5.664L67.7871 12.528L69.9471 5.688C69.9791 5.576 70.0511 5.464 70.1631 5.352C70.2911 5.224 70.4671 5.16 70.6911 5.16H72.2751C72.4991 5.16 72.6671 5.224 72.7791 5.352C72.9071 5.464 72.9871 5.576 73.0191 5.688L75.1791 12.528L77.1951 5.664C77.2271 5.552 77.2991 5.44 77.4111 5.328C77.5391 5.216 77.7071 5.16 77.9151 5.16H80.3871C80.5311 5.16 80.6511 5.216 80.7471 5.328C80.8591 5.424 80.9151 5.544 80.9151 5.688C80.9151 5.768 80.9071 5.848 80.8911 5.928L77.4351 17.04C77.3871 17.216 77.2991 17.36 77.1711 17.472C77.0591 17.584 76.8831 17.64 76.6431 17.64H74.4831C74.2591 17.64 74.0831 17.584 73.9551 17.472C73.8271 17.36 73.7391 17.216 73.6911 17.04L71.4831 10.464L69.2751 17.04C69.2271 17.216 69.1391 17.36 69.0111 17.472C68.8831 17.584 68.7071 17.64 68.4831 17.64H66.3231ZM86.1412 17.88C85.2772 17.88 84.5012 17.72 83.8132 17.4C83.1412 17.064 82.6052 16.616 82.2052 16.056C81.8052 15.496 81.6052 14.864 81.6052 14.16C81.6052 13.024 82.0692 12.128 82.9972 11.472C83.9252 10.8 85.1572 10.344 86.6932 10.104L89.6932 9.648V9.312C89.6932 8.736 89.5732 8.296 89.3332 7.992C89.0932 7.688 88.6532 7.536 88.0132 7.536C87.5652 7.536 87.1972 7.624 86.9092 7.8C86.6372 7.976 86.4212 8.216 86.2612 8.52C86.1172 8.728 85.9172 8.832 85.6612 8.832H82.9732C82.7972 8.832 82.6612 8.784 82.5652 8.688C82.4692 8.576 82.4292 8.448 82.4452 8.304C82.4452 8.016 82.5492 7.688 82.7572 7.32C82.9812 6.936 83.3172 6.56 83.7652 6.192C84.2132 5.824 84.7892 5.52 85.4932 5.28C86.1972 5.04 87.0452 4.92 88.0372 4.92C89.0772 4.92 89.9652 5.04 90.7012 5.28C91.4372 5.52 92.0292 5.856 92.4772 6.288C92.9412 6.72 93.2852 7.232 93.5092 7.824C93.7332 8.4 93.8452 9.04 93.8452 9.744V17.04C93.8452 17.216 93.7812 17.36 93.6532 17.472C93.5412 17.584 93.4052 17.64 93.2452 17.64H90.4612C90.2852 17.64 90.1412 17.584 90.0292 17.472C89.9172 17.36 89.8612 17.216 89.8612 17.04V16.2C89.6532 16.504 89.3732 16.784 89.0212 17.04C88.6692 17.296 88.2532 17.496 87.7732 17.64C87.3092 17.8 86.7652 17.88 86.1412 17.88ZM87.2692 15.144C87.7332 15.144 88.1492 15.048 88.5172 14.856C88.9012 14.648 89.1972 14.336 89.4052 13.92C89.6292 13.488 89.7412 12.952 89.7412 12.312V11.976L87.7012 12.336C86.9492 12.464 86.3972 12.664 86.0452 12.936C85.7092 13.192 85.5412 13.496 85.5412 13.848C85.5412 14.12 85.6212 14.352 85.7812 14.544C85.9412 14.736 86.1492 14.888 86.4052 15C86.6612 15.096 86.9492 15.144 87.2692 15.144ZM100.509 17.64C100.269 17.64 100.093 17.584 99.9806 17.472C99.8686 17.344 99.7726 17.2 99.6926 17.04L95.1566 5.904C95.1246 5.84 95.1086 5.768 95.1086 5.688C95.1086 5.544 95.1566 5.424 95.2526 5.328C95.3646 5.216 95.5006 5.16 95.6606 5.16H98.3726C98.5806 5.16 98.7406 5.216 98.8526 5.328C98.9646 5.44 99.0366 5.552 99.0686 5.664L101.781 13.032L104.517 5.664C104.549 5.552 104.621 5.44 104.733 5.328C104.845 5.216 105.005 5.16 105.213 5.16H107.925C108.069 5.16 108.197 5.216 108.309 5.328C108.421 5.424 108.477 5.544 108.477 5.688C108.477 5.768 108.461 5.84 108.429 5.904L103.893 17.04C103.829 17.2 103.733 17.344 103.605 17.472C103.493 17.584 103.309 17.64 103.053 17.64H100.509ZM115.5 17.88C113.612 17.88 112.108 17.368 110.988 16.344C109.868 15.32 109.284 13.8 109.236 11.784C109.236 11.672 109.236 11.528 109.236 11.352C109.236 11.176 109.236 11.04 109.236 10.944C109.284 9.68 109.564 8.6 110.076 7.704C110.604 6.792 111.324 6.104 112.236 5.64C113.164 5.16 114.244 4.92 115.476 4.92C116.884 4.92 118.044 5.2 118.956 5.76C119.884 6.32 120.58 7.08 121.044 8.04C121.508 9 121.74 10.096 121.74 11.328V11.904C121.74 12.08 121.676 12.224 121.548 12.336C121.436 12.448 121.3 12.504 121.14 12.504H113.46C113.46 12.52 113.46 12.544 113.46 12.576C113.46 12.608 113.46 12.64 113.46 12.672C113.476 13.136 113.556 13.56 113.7 13.944C113.844 14.328 114.068 14.632 114.372 14.856C114.676 15.08 115.044 15.192 115.476 15.192C115.796 15.192 116.06 15.144 116.268 15.048C116.492 14.936 116.676 14.816 116.82 14.688C116.964 14.544 117.076 14.424 117.156 14.328C117.3 14.168 117.412 14.072 117.492 14.04C117.588 13.992 117.732 13.968 117.924 13.968H120.9C121.06 13.968 121.188 14.016 121.284 14.112C121.396 14.192 121.444 14.312 121.428 14.472C121.412 14.744 121.276 15.072 121.02 15.456C120.764 15.84 120.388 16.224 119.892 16.608C119.412 16.976 118.804 17.28 118.068 17.52C117.332 17.76 116.476 17.88 115.5 17.88ZM113.46 10.128H117.516V10.08C117.516 9.568 117.436 9.12 117.276 8.736C117.132 8.352 116.9 8.056 116.58 7.848C116.276 7.64 115.908 7.536 115.476 7.536C115.044 7.536 114.676 7.64 114.372 7.848C114.084 8.056 113.86 8.352 113.7 8.736C113.54 9.12 113.46 9.568 113.46 10.08V10.128ZM124.337 17.64C124.161 17.64 124.017 17.584 123.905 17.472C123.793 17.36 123.737 17.216 123.737 17.04V13.992C123.737 13.832 123.793 13.696 123.905 13.584C124.017 13.456 124.161 13.392 124.337 13.392H127.361C127.537 13.392 127.681 13.456 127.793 13.584C127.921 13.696 127.985 13.832 127.985 13.992V17.04C127.985 17.216 127.921 17.36 127.793 17.472C127.681 17.584 127.537 17.64 127.361 17.64H124.337ZM131.144 17.64C130.968 17.64 130.824 17.584 130.712 17.472C130.6 17.36 130.544 17.216 130.544 17.04V5.76C130.544 5.584 130.6 5.44 130.712 5.328C130.824 5.216 130.968 5.16 131.144 5.16H133.976C134.136 5.16 134.272 5.216 134.384 5.328C134.512 5.44 134.576 5.584 134.576 5.76V17.04C134.576 17.216 134.512 17.36 134.384 17.472C134.272 17.584 134.136 17.64 133.976 17.64H131.144ZM131.12 3.36C130.944 3.36 130.8 3.304 130.688 3.192C130.576 3.08 130.52 2.936 130.52 2.76V0.623998C130.52 0.447999 130.576 0.303998 130.688 0.191998C130.8 0.0639987 130.944 -9.53674e-07 131.12 -9.53674e-07H133.976C134.152 -9.53674e-07 134.296 0.0639987 134.408 0.191998C134.536 0.303998 134.6 0.447999 134.6 0.623998V2.76C134.6 2.936 134.536 3.08 134.408 3.192C134.296 3.304 134.152 3.36 133.976 3.36H131.12ZM143.158 17.88C141.814 17.88 140.678 17.664 139.75 17.232C138.838 16.8 138.134 16.184 137.638 15.384C137.158 14.568 136.886 13.6 136.822 12.48C136.806 12.16 136.798 11.8 136.798 11.4C136.798 10.984 136.806 10.624 136.822 10.32C136.886 9.184 137.174 8.216 137.686 7.416C138.198 6.616 138.91 6 139.822 5.568C140.75 5.136 141.862 4.92 143.158 4.92C144.47 4.92 145.582 5.136 146.494 5.568C147.422 6 148.142 6.616 148.654 7.416C149.166 8.216 149.454 9.184 149.518 10.32C149.534 10.624 149.542 10.984 149.542 11.4C149.542 11.8 149.534 12.16 149.518 12.48C149.454 13.6 149.174 14.568 148.678 15.384C148.198 16.184 147.494 16.8 146.566 17.232C145.654 17.664 144.518 17.88 143.158 17.88ZM143.158 14.952C143.878 14.952 144.398 14.736 144.718 14.304C145.054 13.872 145.246 13.224 145.294 12.36C145.31 12.12 145.318 11.8 145.318 11.4C145.318 11 145.31 10.68 145.294 10.44C145.246 9.592 145.054 8.952 144.718 8.52C144.398 8.072 143.878 7.848 143.158 7.848C142.454 7.848 141.934 8.072 141.598 8.52C141.262 8.952 141.078 9.592 141.046 10.44C141.03 10.68 141.022 11 141.022 11.4C141.022 11.8 141.03 12.12 141.046 12.36C141.078 13.224 141.262 13.872 141.598 14.304C141.934 14.736 142.454 14.952 143.158 14.952Z" fill="#161C2D"/>
</svg>
