<svg width="175" height="21" viewBox="0 0 175 21" fill="none" xmlns="http://www.w3.org/2000/svg">
<path d="M0.699063 20.5801C0.493729 20.5801 0.325729 20.5147 0.195063 20.3841C0.0643959 20.2534 -0.000937492 20.0854 -0.000937492 19.8801V1.68008C-0.000937492 1.47474 0.0643959 1.30674 0.195063 1.17608C0.325729 1.04541 0.493729 0.980077 0.699063 0.980077H9.23906C10.8444 0.980077 12.1604 1.20408 13.1871 1.65208C14.2137 2.10008 14.9697 2.74408 15.4551 3.58408C15.9591 4.40541 16.2111 5.38541 16.2111 6.52408C16.2111 7.19608 16.0804 7.79341 15.8191 8.31608C15.5764 8.82008 15.2684 9.24008 14.8951 9.57608C14.5404 9.91208 14.2044 10.1547 13.8871 10.3041C14.5964 10.6401 15.2217 11.1907 15.7631 11.9561C16.3231 12.7214 16.6031 13.6174 16.6031 14.6441C16.6031 15.8761 16.3231 16.9401 15.7631 17.8361C15.2217 18.7134 14.4191 19.3947 13.3551 19.8801C12.3097 20.3467 11.0217 20.5801 9.49106 20.5801H0.699063ZM5.01106 16.9401H8.93106C9.73373 16.9401 10.3404 16.7067 10.7511 16.2401C11.1617 15.7734 11.3671 15.2414 11.3671 14.6441C11.3671 13.9907 11.1524 13.4401 10.7231 12.9921C10.3124 12.5441 9.71506 12.3201 8.93106 12.3201H5.01106V16.9401ZM5.01106 8.76408H8.67906C9.4444 8.76408 10.0137 8.56808 10.3871 8.17608C10.7791 7.78408 10.9751 7.28008 10.9751 6.66408C10.9751 6.06674 10.7791 5.58141 10.3871 5.20808C10.0137 4.81608 9.4444 4.62008 8.67906 4.62008H5.01106V8.76408ZM19.9504 20.5801C19.745 20.5801 19.577 20.5147 19.4464 20.3841C19.3157 20.2534 19.2504 20.0854 19.2504 19.8801V6.72008C19.2504 6.53341 19.3157 6.37474 19.4464 6.24408C19.577 6.09474 19.745 6.02008 19.9504 6.02008H23.1704C23.3757 6.02008 23.5437 6.09474 23.6744 6.24408C23.805 6.37474 23.8704 6.53341 23.8704 6.72008V7.84008C24.3744 7.26141 24.9717 6.81341 25.6624 6.49608C26.3717 6.17874 27.165 6.02008 28.0424 6.02008H29.2744C29.461 6.02008 29.6197 6.08541 29.7504 6.21608C29.8997 6.34674 29.9744 6.51474 29.9744 6.72008V9.60408C29.9744 9.79074 29.8997 9.95874 29.7504 10.1081C29.6197 10.2387 29.461 10.3041 29.2744 10.3041H26.5584C25.793 10.3041 25.1957 10.5187 24.7664 10.9481C24.3557 11.3587 24.1504 11.9467 24.1504 12.7121V19.8801C24.1504 20.0854 24.0757 20.2534 23.9264 20.3841C23.7957 20.5147 23.6277 20.5801 23.4224 20.5801H19.9504ZM35.9315 20.8601C34.9235 20.8601 34.0182 20.6734 33.2155 20.3001C32.4315 19.9081 31.8062 19.3854 31.3395 18.7321C30.8729 18.0787 30.6395 17.3414 30.6395 16.5201C30.6395 15.1947 31.1809 14.1494 32.2635 13.3841C33.3462 12.6001 34.7835 12.0681 36.5755 11.7881L40.0755 11.2561V10.8641C40.0755 10.1921 39.9355 9.67874 39.6555 9.32408C39.3755 8.96941 38.8622 8.79208 38.1155 8.79208C37.5929 8.79208 37.1635 8.89474 36.8275 9.10008C36.5102 9.30541 36.2582 9.58541 36.0715 9.94008C35.9035 10.1827 35.6702 10.3041 35.3715 10.3041H32.2355C32.0302 10.3041 31.8715 10.2481 31.7595 10.1361C31.6475 10.0054 31.6009 9.85608 31.6195 9.68808C31.6195 9.35208 31.7409 8.96941 31.9835 8.54008C32.2449 8.09208 32.6369 7.65341 33.1595 7.22408C33.6822 6.79474 34.3542 6.44008 35.1755 6.16008C35.9969 5.88008 36.9862 5.74008 38.1435 5.74008C39.3569 5.74008 40.3929 5.88008 41.2515 6.16008C42.1102 6.44008 42.8009 6.83208 43.3235 7.33608C43.8649 7.84008 44.2662 8.43741 44.5275 9.12808C44.7889 9.80008 44.9195 10.5467 44.9195 11.3681V19.8801C44.9195 20.0854 44.8449 20.2534 44.6955 20.3841C44.5649 20.5147 44.4062 20.5801 44.2195 20.5801H40.9715C40.7662 20.5801 40.5982 20.5147 40.4675 20.3841C40.3369 20.2534 40.2715 20.0854 40.2715 19.8801V18.9001C40.0289 19.2547 39.7022 19.5814 39.2915 19.8801C38.8809 20.1787 38.3955 20.4121 37.8355 20.5801C37.2942 20.7667 36.6595 20.8601 35.9315 20.8601ZM37.2475 17.6681C37.7889 17.6681 38.2742 17.5561 38.7035 17.3321C39.1515 17.0894 39.4969 16.7254 39.7395 16.2401C40.0009 15.7361 40.1315 15.1107 40.1315 14.3641V13.9721L37.7515 14.3921C36.8742 14.5414 36.2302 14.7747 35.8195 15.0921C35.4275 15.3907 35.2315 15.7454 35.2315 16.1561C35.2315 16.4734 35.3249 16.7441 35.5115 16.9681C35.6982 17.1921 35.9409 17.3694 36.2395 17.5001C36.5382 17.6121 36.8742 17.6681 37.2475 17.6681ZM48.6236 20.5801C48.4183 20.5801 48.2503 20.5147 48.1196 20.3841C47.9889 20.2534 47.9236 20.0854 47.9236 19.8801V6.72008C47.9236 6.51474 47.9889 6.34674 48.1196 6.21608C48.2503 6.08541 48.4183 6.02008 48.6236 6.02008H51.9276C52.1143 6.02008 52.2729 6.08541 52.4036 6.21608C52.5529 6.34674 52.6276 6.51474 52.6276 6.72008V19.8801C52.6276 20.0854 52.5529 20.2534 52.4036 20.3841C52.2729 20.5147 52.1143 20.5801 51.9276 20.5801H48.6236ZM48.5956 3.92008C48.3903 3.92008 48.2223 3.85474 48.0916 3.72408C47.9609 3.59341 47.8956 3.42541 47.8956 3.22008V0.728077C47.8956 0.522744 47.9609 0.354744 48.0916 0.224077C48.2223 0.074744 48.3903 7.77245e-05 48.5956 7.77245e-05H51.9276C52.1329 7.77245e-05 52.3009 0.074744 52.4316 0.224077C52.5809 0.354744 52.6556 0.522744 52.6556 0.728077V3.22008C52.6556 3.42541 52.5809 3.59341 52.4316 3.72408C52.3009 3.85474 52.1329 3.92008 51.9276 3.92008H48.5956ZM56.4524 20.5801C56.2471 20.5801 56.0791 20.5147 55.9484 20.3841C55.8178 20.2534 55.7524 20.0854 55.7524 19.8801V6.72008C55.7524 6.51474 55.8178 6.34674 55.9484 6.21608C56.0791 6.08541 56.2471 6.02008 56.4524 6.02008H59.6724C59.8778 6.02008 60.0458 6.08541 60.1764 6.21608C60.3071 6.34674 60.3724 6.51474 60.3724 6.72008V7.78408C60.8578 7.20541 61.4924 6.72008 62.2764 6.32808C63.0604 5.93608 63.9844 5.74008 65.0484 5.74008C66.1311 5.74008 67.0831 5.98274 67.9044 6.46808C68.7444 6.95341 69.3978 7.67208 69.8644 8.62408C70.3498 9.55741 70.5924 10.7054 70.5924 12.0681V19.8801C70.5924 20.0854 70.5178 20.2534 70.3684 20.3841C70.2378 20.5147 70.0791 20.5801 69.8924 20.5801H66.3644C66.1778 20.5801 66.0098 20.5147 65.8604 20.3841C65.7298 20.2534 65.6644 20.0854 65.6644 19.8801V12.2361C65.6644 11.3587 65.4498 10.6867 65.0204 10.2201C64.6098 9.73474 63.9938 9.49208 63.1724 9.49208C62.4071 9.49208 61.7911 9.73474 61.3244 10.2201C60.8764 10.6867 60.6524 11.3587 60.6524 12.2361V19.8801C60.6524 20.0854 60.5778 20.2534 60.4284 20.3841C60.2978 20.5147 60.1391 20.5801 59.9524 20.5801H56.4524ZM77.3756 20.5801C77.0956 20.5801 76.8903 20.5147 76.7596 20.3841C76.629 20.2534 76.5263 20.0854 76.4516 19.8801L72.4196 6.91608C72.3823 6.82274 72.3636 6.72941 72.3636 6.63608C72.3636 6.46808 72.429 6.32808 72.5596 6.21608C72.6903 6.08541 72.8396 6.02008 73.0076 6.02008H75.8916C76.1343 6.02008 76.321 6.08541 76.4516 6.21608C76.601 6.34674 76.6943 6.47741 76.7316 6.60808L79.0836 14.6161L81.6036 6.63608C81.641 6.50541 81.725 6.37474 81.8556 6.24408C82.005 6.09474 82.2103 6.02008 82.4716 6.02008H84.3196C84.581 6.02008 84.777 6.09474 84.9076 6.24408C85.057 6.37474 85.1503 6.50541 85.1876 6.63608L87.7076 14.6161L90.0596 6.60808C90.097 6.47741 90.181 6.34674 90.3116 6.21608C90.461 6.08541 90.657 6.02008 90.8996 6.02008H93.7836C93.9516 6.02008 94.0916 6.08541 94.2036 6.21608C94.3343 6.32808 94.3996 6.46808 94.3996 6.63608C94.3996 6.72941 94.3903 6.82274 94.3716 6.91608L90.3396 19.8801C90.2836 20.0854 90.181 20.2534 90.0316 20.3841C89.901 20.5147 89.6956 20.5801 89.4156 20.5801H86.8956C86.6343 20.5801 86.429 20.5147 86.2796 20.3841C86.1303 20.2534 86.0276 20.0854 85.9716 19.8801L83.3956 12.2081L80.8196 19.8801C80.7636 20.0854 80.661 20.2534 80.5116 20.3841C80.3623 20.5147 80.157 20.5801 79.8956 20.5801H77.3756ZM100.497 20.8601C99.4888 20.8601 98.5835 20.6734 97.7808 20.3001C96.9968 19.9081 96.3715 19.3854 95.9048 18.7321C95.4382 18.0787 95.2048 17.3414 95.2048 16.5201C95.2048 15.1947 95.7462 14.1494 96.8288 13.3841C97.9115 12.6001 99.3488 12.0681 101.141 11.7881L104.641 11.2561V10.8641C104.641 10.1921 104.501 9.67874 104.221 9.32408C103.941 8.96941 103.427 8.79208 102.681 8.79208C102.158 8.79208 101.729 8.89474 101.393 9.10008C101.075 9.30541 100.823 9.58541 100.637 9.94008C100.469 10.1827 100.235 10.3041 99.9368 10.3041H96.8008C96.5955 10.3041 96.4368 10.2481 96.3248 10.1361C96.2128 10.0054 96.1662 9.85608 96.1848 9.68808C96.1848 9.35208 96.3062 8.96941 96.5488 8.54008C96.8102 8.09208 97.2022 7.65341 97.7248 7.22408C98.2475 6.79474 98.9195 6.44008 99.7408 6.16008C100.562 5.88008 101.551 5.74008 102.709 5.74008C103.922 5.74008 104.958 5.88008 105.817 6.16008C106.675 6.44008 107.366 6.83208 107.889 7.33608C108.43 7.84008 108.831 8.43741 109.093 9.12808C109.354 9.80008 109.485 10.5467 109.485 11.3681V19.8801C109.485 20.0854 109.41 20.2534 109.261 20.3841C109.13 20.5147 108.971 20.5801 108.785 20.5801H105.537C105.331 20.5801 105.163 20.5147 105.033 20.3841C104.902 20.2534 104.837 20.0854 104.837 19.8801V18.9001C104.594 19.2547 104.267 19.5814 103.857 19.8801C103.446 20.1787 102.961 20.4121 102.401 20.5801C101.859 20.7667 101.225 20.8601 100.497 20.8601ZM101.813 17.6681C102.354 17.6681 102.839 17.5561 103.269 17.3321C103.717 17.0894 104.062 16.7254 104.305 16.2401C104.566 15.7361 104.697 15.1107 104.697 14.3641V13.9721L102.317 14.3921C101.439 14.5414 100.795 14.7747 100.385 15.0921C99.9928 15.3907 99.7968 15.7454 99.7968 16.1561C99.7968 16.4734 99.8902 16.7441 100.077 16.9681C100.263 17.1921 100.506 17.3694 100.805 17.5001C101.103 17.6121 101.439 17.6681 101.813 17.6681ZM117.259 20.5801C116.979 20.5801 116.773 20.5147 116.643 20.3841C116.512 20.2347 116.4 20.0667 116.307 19.8801L111.015 6.88808C110.977 6.81341 110.959 6.72941 110.959 6.63608C110.959 6.46808 111.015 6.32808 111.127 6.21608C111.257 6.08541 111.416 6.02008 111.603 6.02008H114.767C115.009 6.02008 115.196 6.08541 115.327 6.21608C115.457 6.34674 115.541 6.47741 115.579 6.60808L118.743 15.2041L121.935 6.60808C121.972 6.47741 122.056 6.34674 122.187 6.21608C122.317 6.08541 122.504 6.02008 122.747 6.02008H125.911C126.079 6.02008 126.228 6.08541 126.359 6.21608C126.489 6.32808 126.555 6.46808 126.555 6.63608C126.555 6.72941 126.536 6.81341 126.499 6.88808L121.207 19.8801C121.132 20.0667 121.02 20.2347 120.871 20.3841C120.74 20.5147 120.525 20.5801 120.227 20.5801H117.259ZM134.749 20.8601C132.546 20.8601 130.791 20.2627 129.485 19.0681C128.178 17.8734 127.497 16.1001 127.441 13.7481C127.441 13.6174 127.441 13.4494 127.441 13.2441C127.441 13.0387 127.441 12.8801 127.441 12.7681C127.497 11.2934 127.823 10.0334 128.421 8.98808C129.037 7.92408 129.877 7.12141 130.941 6.58008C132.023 6.02008 133.283 5.74008 134.721 5.74008C136.363 5.74008 137.717 6.06674 138.781 6.72008C139.863 7.37341 140.675 8.26008 141.217 9.38008C141.758 10.5001 142.029 11.7787 142.029 13.2161V13.8881C142.029 14.0934 141.954 14.2614 141.805 14.3921C141.674 14.5227 141.515 14.5881 141.329 14.5881H132.369C132.369 14.6067 132.369 14.6347 132.369 14.6721C132.369 14.7094 132.369 14.7467 132.369 14.7841C132.387 15.3254 132.481 15.8201 132.649 16.2681C132.817 16.7161 133.078 17.0707 133.433 17.3321C133.787 17.5934 134.217 17.7241 134.721 17.7241C135.094 17.7241 135.402 17.6681 135.645 17.5561C135.906 17.4254 136.121 17.2854 136.289 17.1361C136.457 16.9681 136.587 16.8281 136.681 16.7161C136.849 16.5294 136.979 16.4174 137.073 16.3801C137.185 16.3241 137.353 16.2961 137.577 16.2961H141.049C141.235 16.2961 141.385 16.3521 141.497 16.4641C141.627 16.5574 141.683 16.6974 141.665 16.8841C141.646 17.2014 141.487 17.5841 141.189 18.0321C140.89 18.4801 140.451 18.9281 139.873 19.3761C139.313 19.8054 138.603 20.1601 137.745 20.4401C136.886 20.7201 135.887 20.8601 134.749 20.8601ZM132.369 11.8161H137.101V11.7601C137.101 11.1627 137.007 10.6401 136.821 10.1921C136.653 9.74408 136.382 9.39874 136.009 9.15608C135.654 8.91341 135.225 8.79208 134.721 8.79208C134.217 8.79208 133.787 8.91341 133.433 9.15608C133.097 9.39874 132.835 9.74408 132.649 10.1921C132.462 10.6401 132.369 11.1627 132.369 11.7601V11.8161ZM145.058 20.5801C144.853 20.5801 144.685 20.5147 144.554 20.3841C144.423 20.2534 144.358 20.0854 144.358 19.8801V16.3241C144.358 16.1374 144.423 15.9787 144.554 15.8481C144.685 15.6987 144.853 15.6241 145.058 15.6241H148.586C148.791 15.6241 148.959 15.6987 149.09 15.8481C149.239 15.9787 149.314 16.1374 149.314 16.3241V19.8801C149.314 20.0854 149.239 20.2534 149.09 20.3841C148.959 20.5147 148.791 20.5801 148.586 20.5801H145.058ZM153 20.5801C152.794 20.5801 152.626 20.5147 152.496 20.3841C152.365 20.2534 152.3 20.0854 152.3 19.8801V6.72008C152.3 6.51474 152.365 6.34674 152.496 6.21608C152.626 6.08541 152.794 6.02008 153 6.02008H156.304C156.49 6.02008 156.649 6.08541 156.78 6.21608C156.929 6.34674 157.004 6.51474 157.004 6.72008V19.8801C157.004 20.0854 156.929 20.2534 156.78 20.3841C156.649 20.5147 156.49 20.5801 156.304 20.5801H153ZM152.972 3.92008C152.766 3.92008 152.598 3.85474 152.468 3.72408C152.337 3.59341 152.272 3.42541 152.272 3.22008V0.728077C152.272 0.522744 152.337 0.354744 152.468 0.224077C152.598 0.074744 152.766 7.77245e-05 152.972 7.77245e-05H156.304C156.509 7.77245e-05 156.677 0.074744 156.808 0.224077C156.957 0.354744 157.032 0.522744 157.032 0.728077V3.22008C157.032 3.42541 156.957 3.59341 156.808 3.72408C156.677 3.85474 156.509 3.92008 156.304 3.92008H152.972ZM167.016 20.8601C165.448 20.8601 164.123 20.6081 163.04 20.1041C161.976 19.6001 161.155 18.8814 160.576 17.9481C160.016 16.9961 159.699 15.8667 159.624 14.5601C159.606 14.1867 159.596 13.7667 159.596 13.3001C159.596 12.8147 159.606 12.3947 159.624 12.0401C159.699 10.7147 160.035 9.58541 160.632 8.65208C161.23 7.71874 162.06 7.00008 163.124 6.49608C164.207 5.99208 165.504 5.74008 167.016 5.74008C168.547 5.74008 169.844 5.99208 170.908 6.49608C171.991 7.00008 172.831 7.71874 173.428 8.65208C174.026 9.58541 174.362 10.7147 174.436 12.0401C174.455 12.3947 174.464 12.8147 174.464 13.3001C174.464 13.7667 174.455 14.1867 174.436 14.5601C174.362 15.8667 174.035 16.9961 173.456 17.9481C172.896 18.8814 172.075 19.6001 170.992 20.1041C169.928 20.6081 168.603 20.8601 167.016 20.8601ZM167.016 17.4441C167.856 17.4441 168.463 17.1921 168.836 16.6881C169.228 16.1841 169.452 15.4281 169.508 14.4201C169.527 14.1401 169.536 13.7667 169.536 13.3001C169.536 12.8334 169.527 12.4601 169.508 12.1801C169.452 11.1907 169.228 10.4441 168.836 9.94008C168.463 9.41741 167.856 9.15608 167.016 9.15608C166.195 9.15608 165.588 9.41741 165.196 9.94008C164.804 10.4441 164.59 11.1907 164.552 12.1801C164.534 12.4601 164.524 12.8334 164.524 13.3001C164.524 13.7667 164.534 14.1401 164.552 14.4201C164.59 15.4281 164.804 16.1841 165.196 16.6881C165.588 17.1921 166.195 17.4441 167.016 17.4441Z" fill="white"/>
</svg>
